<?xml version="1.0" encoding="iso-8859-1"?>
<!-- Generator: Adobe Illustrator 19.0.0, SVG Export Plug-In . SVG Version: 6.00 Build 0)  -->
<svg version="1.1" id="Capa_1" xmlns="http://www.w3.org/2000/svg" xmlns:xlink="http://www.w3.org/1999/xlink" x="0px" y="0px"
	 viewBox="0 0 512.001 512.001" style="enable-background:new 0 0 512.001 512.001;" xml:space="preserve">
<path style="fill:#57555C;" d="M185.144,348.495l-42.429,42.429c-5.94,5.94-15.275,5.939-21.214,0l-0.212-0.212
	c-5.516-5.94-5.728-15.062,0.212-21.002l42.429-42.429c5.728-5.728,15.062-5.728,21.002-0.212l0.212,0.212
	C191.084,333.22,190.873,342.767,185.144,348.495z"/>
<path style="fill:#B7E0F6;" d="M263.758,163.893c-5.859-5.859-5.859-15.353,0-21.212l48.65-48.636
	c5.859-5.859,15.353-5.859,21.212,0c5.859,5.859,5.859,15.353,0,21.212l-48.65,48.636
	C279.111,169.752,269.618,169.752,263.758,163.893z"/>
<path style="fill:#A4D9F5;" d="M348.623,248.759c-5.859-5.859-5.859-15.353,0-21.212l48.636-48.65
	c5.859-5.859,15.353-5.859,21.212,0c5.859,5.859,5.859,15.353,0,21.212l-48.636,48.65
	C363.976,254.618,354.484,254.618,348.623,248.759z"/>
<path style="fill:#57555C;" d="M390.926,270.001l-55.795,55.795c-13.578,13.578-31.185,21.427-49.43,22.275
	c-5.94,0-12.305-0.423-18.456-1.484c-8.062-1.699-16.123-0.849-23.548,1.908l-22.488-0.425l-26.73-30.549l-27.58-31.397
	l-2.969-17.396c2.97-7.212,3.818-15.275,1.908-23.548c-1.06-6.151-1.485-12.093-1.06-18.033
	c0.637-18.456,8.274-36.276,21.851-49.854l55.795-55.795c5.939-5.939,15.274-5.94,21.214,0l127.287,127.288
	C396.865,254.726,396.865,264.062,390.926,270.001z"/>
<g>
	<path style="fill:#3C3A41;" d="M185.144,348.495l-42.429,42.429c-5.94,5.94-15.275,5.939-21.214,0l-0.212-0.212l63.644-63.644
		l0.212,0.212C191.084,333.22,190.873,342.767,185.144,348.495z"/>
	<path style="fill:#3C3A41;" d="M390.926,270.001l-55.795,55.795c-13.578,13.578-31.185,21.427-49.43,22.275
		c-5.94,0-12.305-0.423-18.456-1.484c-8.062-1.699-16.123-0.849-23.548,1.908l-22.488-0.425l-26.73-30.549l132.592-132.592
		l63.855,63.857C396.865,254.726,396.865,264.062,390.926,270.001z"/>
	<path style="fill:#3C3A41;" d="M243.696,348.495c-2.334,1.06-4.243,2.122-6.153,3.182L203.6,372.043
		c-5.303,3.182-12.728,2.97-18.456-1.908l-42.642-42.642c-4.879-4.879-5.728-12.516-1.908-18.456l20.153-34.155
		c1.273-1.697,2.121-3.82,3.183-6.153L243.696,348.495z"/>
</g>
<path style="fill:#2B292C;" d="M243.696,348.495c-2.334,1.06-4.243,2.122-6.153,3.182L203.6,372.043
	c-5.303,3.182-12.728,2.97-18.456-1.908l-21.639-21.639L203.6,308.4L243.696,348.495z"/>
<path style="fill:#FD4E26;" d="M512,256c0-70.434-29.428-134.077-75.676-180.324S326.434,0,256,0C115.135,0,0,114.71,0,256
	c0.001,70.433,29.428,134.077,75.676,180.324S185.567,511.999,256,512C397.29,512,512,396.44,512,256z M256,30.126
	c61.946-0.001,118.378,26.033,159.11,66.764s66.766,97.163,66.764,159.11c0.212,57.491-22.426,109.679-56.795,147.865
	L108.135,86.921C146.321,52.551,198.72,30.124,256,30.126z M256,481.875c-62.157,0.212-118.378-26.033-159.11-66.764
	s-66.977-96.952-66.764-159.11c-0.001-57.28,22.427-109.68,56.795-147.865l316.945,316.945
	C365.68,459.448,313.28,481.876,256,481.875z"/>
<path style="fill:#FD3018;" d="M481.875,256c0.212,57.491-22.426,109.679-56.795,147.865L266.608,245.393l-21.214,21.214
	L403.866,425.08c-38.185,34.368-90.585,56.796-147.865,56.795c-62.157,0.212-118.378-26.033-159.11-66.764l-21.214,21.214
	c46.248,46.248,109.891,75.675,180.324,75.676c141.29,0,256-115.56,256-256c0-70.434-29.428-134.076-75.676-180.325L415.111,96.89
	C455.841,137.622,481.876,194.054,481.875,256z"/>
<g>
</g>
<g>
</g>
<g>
</g>
<g>
</g>
<g>
</g>
<g>
</g>
<g>
</g>
<g>
</g>
<g>
</g>
<g>
</g>
<g>
</g>
<g>
</g>
<g>
</g>
<g>
</g>
<g>
</g>
</svg>
