<svg id="_x33_0" enable-background="new 0 0 64 64" height="512" viewBox="0 0 64 64" width="512" xmlns="http://www.w3.org/2000/svg"><g><g><g><path d="m44.95 44.19 1.05 2.81h-1l-.3-.4c-1.7-2.27-4.37-3.6-7.2-3.6h-6.5v-4h6.46c3.33 0 6.32 2.07 7.49 5.19z" fill="#ffeaa7"/></g><g><path d="m31 47c-.28 0-.52.11-.71.29l-.17-.17c.54-.54.88-1.29.88-2.12v-2h6.5c2.83 0 5.5 1.33 7.2 3.6l.3.4z" fill="#e6e9ed"/></g><g><path d="m61 43v4h-14l.3-.4c1.7-2.27 4.37-3.6 7.2-3.6z" fill="#e6e9ed"/></g><g><path d="m54.5 43c-2.83 0-5.5 1.33-7.2 3.6l-.3.4h-1l1.05-2.81c1.17-3.12 4.16-5.19 7.49-5.19h6.46v4z" fill="#ffeaa7"/></g><g><path d="m47 47h14c.55 0 1 .45 1 1v2c0 .55-.45 1-1 1h-12c0 1.66-1.34 3-3 3s-3-1.34-3-3h-12c-.55 0-1-.45-1-1v-2c0-.28.11-.52.29-.71.19-.18.43-.29.71-.29h14 1z" fill="#fcd770"/></g><g><path d="m26.02 49.22c.21 6.57 1.98 12.78 1.98 12.78h-22s1.64-5.73 1.95-12h16.05c.78 0 1.49-.3 2.02-.78z" fill="#ff826e"/></g><g><path d="m17.94 31.89 2.06 4.11s4.7-1.87 5-7.43v15.6.01c-.31-.12-.65-.18-1-.18h-16v-2h-6v-5.63c0-1.35.36-2.66 1-3.8s1.58-2.12 2.74-2.82c.4-.24.82-.44 1.25-.6.47-.18.96-.31 1.45-.39l.56-.09c.35 5.48 5 7.33 5 7.33l2.06-4.11c.3.07.61.11.94.11z" fill="#ff826e"/></g><g><path d="m13 28c0 1.88 1.3 3.46 3.06 3.89l-2.06 4.11s-4.65-1.85-5-7.33z" fill="#fc6e51"/></g><g><path d="m21 28 4 .57c-.3 5.56-5 7.43-5 7.43l-2.06-4.11c1.72-.9 1.81-.98 1.89-1.06.72-.73 1.17-1.73 1.17-2.83z" fill="#fc6e51"/></g><g><path d="m8.44 28.76c-.49.08-.98.21-1.45.39v-.01l-.66-8.15c-.22-2.66-.33-5.32-.33-7.99 0-3.04 1.23-5.79 3.22-7.78s4.74-3.22 7.78-3.22 5.79 1.23 7.78 3.22 3.22 4.74 3.22 7.78c0 2.67-.11 5.33-.33 7.99l-.09 1.04c-1.46.2-2.58 1.45-2.58 2.97v3.57l-4-.57-.93-3.71c2.33-1.13 3.93-3.52 3.93-6.29v-5c-2.5 0-5.25-1-7.38-2-2.12-1-3.62-2-3.62-2-1.87 1.25-3 3.35-3 5.61v3.39c0 2.77 1.6 5.16 3.93 6.29l-.93 3.71-4 .67z" fill="#656d78"/></g><g><path d="m60 27h-11l-4.59 5.51c-.26.31-.64.49-1.05.49-.75 0-1.36-.61-1.36-1.36v-4.64h-11v-2c0-.83-.34-1.58-.88-2.12s-1.29-.88-2.12-.88c-.14 0-.28.01-.42.03l.09-1.04c.22-2.66.33-5.32.33-7.99v-5c0-1.1.9-2 2-2h30c1.1 0 2 .9 2 2v17c0 1.1-.9 2-2 2z" fill="#e6e9ed"/></g><g><path d="m26.89 47.79c-.15.56-.45 1.05-.87 1.43-.53.48-1.24.78-2.02.78h-16.05-.95c-2.76 0-5-2.24-5-5v-3h6v2h16c.35 0 .69.06 1 .18.43.14.81.39 1.12.7.54.54.88 1.29.88 2.12 0 .27-.04.54-.11.79z" fill="#f0d0b4"/></g><g><path d="m31 43v2c0 .83-.34 1.58-.88 2.12s-1.29.88-2.12.88c-.39 0-.76-.07-1.11-.21.07-.25.11-.52.11-.79 0-.83-.34-1.58-.88-2.12-.31-.31-.69-.56-1.12-.7v-.01-15.6-3.57c0-1.52 1.12-2.77 2.58-2.97.14-.02.28-.03.42-.03.83 0 1.58.34 2.12.88s.88 1.29.88 2.12v2 12z" fill="#f0d0b4"/></g><g><path d="m19.83 30.83c-.08.08-.17.16-1.89 1.06l-.94.11c-.33 0-.64-.04-.94-.11-1.76-.43-3.06-2.01-3.06-3.89l.93-3.71c.92.46 1.96.71 3.07.71s2.15-.25 3.07-.71l.93 3.71c0 1.1-.45 2.1-1.17 2.83z" fill="#f0d0b4"/></g><g><path d="m24 13v5c0 2.77-1.6 5.16-3.93 6.29-.92.46-1.96.71-3.07.71s-2.15-.25-3.07-.71c-2.33-1.13-3.93-3.52-3.93-6.29v-3.39c0-2.26 1.13-4.36 3-5.61 0 0 1.5 1 3.62 2 2.13 1 4.88 2 7.38 2z" fill="#f0d0b4"/></g></g><g><circle cx="20" cy="16" r="1"/><circle cx="14" cy="16" r="1"/><path d="m17 18c-1.615 0-3.067.897-3.789 2.342l-.105.211 1.789.895.105-.212c.381-.762 1.147-1.236 2-1.236s1.619.474 2 1.236l.105.211 1.789-.895-.105-.211c-.722-1.444-2.174-2.341-3.789-2.341z"/><path d="m35 9c-2.206 0-4 1.794-4 4h2c0-1.103.897-2 2-2s2 .897 2 2-.897 2-2 2h-1v5h2v-3.127c1.723-.444 3-2.013 3-3.873 0-2.206-1.794-4-4-4z"/><path d="m34 22h2v2h-2z"/><path d="m45 11c1.103 0 2 .897 2 2s-.897 2-2 2h-1v5h2v-3.127c1.723-.444 3-2.013 3-3.873 0-2.206-1.794-4-4-4s-4 1.794-4 4h2c0-1.103.897-2 2-2z"/><path d="m44 22h2v2h-2z"/><path d="m55 11c1.103 0 2 .897 2 2s-.897 2-2 2h-1v5h2v-3.127c1.723-.444 3-2.013 3-3.873 0-2.206-1.794-4-4-4s-4 1.794-4 4h2c0-1.103.897-2 2-2z"/><path d="m54 22h2v2h-2z"/><path d="m43.362 34c.703 0 1.364-.31 1.814-.85l4.292-5.15h10.532c1.654 0 3-1.346 3-3v-17c0-1.654-1.346-3-3-3h-30c-1.227 0-2.281.742-2.745 1.8-2.106-3.47-5.909-5.8-10.255-5.8-6.617 0-12 5.383-12 12 0 2.681.113 5.396.335 8.067l.604 7.446c-.241.116-.478.243-.71.382-2.608 1.567-4.229 4.429-4.229 7.471v8.634c0 3.27 2.63 5.932 5.885 5.994-.417 5.665-1.831 10.678-1.846 10.731l-.364 1.275h24.651l-.364-1.274c-.017-.06-1.67-5.922-1.925-12.152.164-.193.308-.401.434-.623.175.023.35.049.529.049.347 0 .678-.058 1-.142v1.142c0 1.103.897 2 2 2h11.126c.445 1.724 2.013 3 3.874 3s3.428-1.276 3.874-3h11.126c1.103 0 2-.897 2-2v-2c0-1.103-.897-2-2-2h-11.774c1.448-1.267 3.324-2 5.274-2h6.5v-2h-6.5c-2.354 0-4.629.847-6.412 2.332 1.075-2.596 3.632-4.332 6.456-4.332h6.456v-2h-6.456c-3.731 0-7.117 2.347-8.427 5.84l-.117.311-.117-.311c-1.31-3.493-4.696-5.84-8.427-5.84h-5.456v-10h9v3.638c0 1.302 1.06 2.362 2.362 2.362zm-36.033-13.097c-.219-2.618-.329-5.277-.329-7.903 0-5.514 4.486-10 10-10s10 4.486 10 10c0 2.626-.11 5.285-.329 7.903l-.029.35c-1.536.559-2.642 2.02-2.642 3.747v2.418l-2.193-.313-.581-2.325c2.262-1.415 3.774-3.921 3.774-6.78v-6h-1c-4.633 0-10.388-3.794-10.446-3.832l-.554-.369-.554.369c-2.158 1.437-3.446 3.845-3.446 6.437v3.395c0 2.859 1.512 5.365 3.774 6.78l-.585 2.341-3.909.651c-.131.022-.258.056-.387.083zm9.671 3.097c-3.309 0-6-2.691-6-6v-3.395c0-1.71.755-3.31 2.046-4.393 1.563.955 5.875 3.379 9.954 3.741v4.047c0 3.309-2.691 6-6 6zm-4.852 5.156c.338 1.414 1.277 2.582 2.532 3.247l-1.119 2.237c-1.096-.685-2.946-2.262-3.442-5.146zm1.861-1.068.612-2.449c.752.234 1.551.361 2.379.361s1.627-.127 2.379-.361l.612 2.449c-.048 1.613-1.367 2.912-2.991 2.912s-2.943-1.299-2.991-2.912zm7.85 1.045 2.027.29c-.478 2.929-2.346 4.527-3.448 5.217l-1.119-2.237c1.262-.669 2.207-1.846 2.54-3.27zm-15.601 1.478c.587-.352 1.217-.605 1.875-.764.883 5.186 5.297 7.002 5.497 7.082l.854.339 2.153-4.305c.122.009.239.037.363.037s.241-.028.364-.037l2.153 4.305.854-.34c.131-.052 2.062-.855 3.63-2.85v8.922h-15.001v-6h-2v4h-4v-4.634c0-2.344 1.249-4.549 3.258-5.755zm-3.258 14.389v-2h4v2h17c1.103 0 2 .897 2 2s-.897 2-2 2h-17c-2.206 0-4-1.794-4-4zm4.294 16c.469-1.913 1.291-5.754 1.589-10h15.117c.384 0 .748-.072 1.099-.173.286 4.314 1.131 8.232 1.607 10.173zm18.706-17.444v-18.556c0-1.103.897-2 2-2s2 .897 2 2v20c0 1.103-.897 2-2 2 0-1.474-.81-2.75-2-3.444zm6 1.444v-1h5.5c1.95 0 3.827.733 5.274 2h-10.916c.084-.322.142-.653.142-1zm29 5h-13v1c0 1.103-.897 2-2 2s-2-.897-2-2v-1h-13v-2l30-.001zm-23.544-10c2.823 0 5.38 1.735 6.455 4.331-1.782-1.485-4.057-2.331-6.411-2.331h-5.5v-2zm-5.456-14v-1c0-1.978-1.447-3.614-3.335-3.933.222-2.672.335-5.387.335-8.067v-5c0-.552.449-1 1-1h30c.551 0 1 .448 1 1v17c0 .552-.449 1-1 1h-11.468l-4.892 5.869c-.198.236-.64.077-.64-.231v-5.638z"/></g></g></svg>